<svg xmlns="http://www.w3.org/2000/svg" viewBox="0 0 1200 800" role="img" aria-label="Инкблот Роршаха">
  <defs>
    <radialGradient id="ink" cx="50%" cy="50%" r="60%">
      <stop offset="0%" stop-color="#23283B" stop-opacity="1"/>
      <stop offset="100%" stop-color="#121521" stop-opacity="1"/>
    </radialGradient>
    <filter id="grain">
      <feTurbulence type="fractalNoise" baseFrequency="0.9" numOctaves="1" stitchTiles="stitch"/>
      <feColorMatrix type="saturate" values="0"/>
      <feComponentTransfer>
        <feFuncA type="linear" slope="0.1"/>
      </feComponentTransfer>
      <feComposite operator="in" in2="SourceGraphic"/>
    </filter>
  </defs>
  <rect width="100%" height="100%" fill="transparent"/>
  <g transform="translate(600,400)">
    <path d="M 0,-250
             C 90,-250 160,-190 190,-110
             C 210,-60 210,0 190,50
             C 150,130 80,160 0,190
             C -80,160 -150,130 -190,50
             C -210,0 -210,-60 -190,-110
             C -160,-190 -90,-250 0,-250 Z
             M 0,-100
             C 40,-110 70,-80 80,-50
             C 85,-30 85,0 80,20
             C 70,50 40,70 0,80
             C -40,70 -70,50 -80,20
             C -85,0 -85,-30 -80,-50
             C -70,-80 -40,-110 0,-100 Z
             " fill="url(#ink)" filter="url(#grain)" opacity="0.95"/>
    <ellipse cx="0" cy="210" rx="240" ry="40" fill="#0b0f1a" opacity="0.08"/>
  </g>
</svg>