<svg xmlns="http://www.w3.org/2000/svg" viewBox="0 0 480 600" role="img" aria-labelledby="title desc">
  <title id="title">Иллюстрация психолога Ольги Королёвой</title>
  <desc id="desc">Силуэт женщины на мягком пастельном фоне, чтобы служить временным портретом для сайта психолога.</desc>
  <defs>
    <linearGradient id="bg" x1="0%" y1="0%" x2="100%" y2="100%">
      <stop offset="0%" stop-color="#f6f0eb" />
      <stop offset="100%" stop-color="#d9ede2" />
    </linearGradient>
    <linearGradient id="hair" x1="0%" y1="0%" x2="0%" y2="100%">
      <stop offset="0%" stop-color="#2f3a46" />
      <stop offset="100%" stop-color="#414d59" />
    </linearGradient>
    <linearGradient id="blouse" x1="0%" y1="0%" x2="100%" y2="0%">
      <stop offset="0%" stop-color="#6cc4a1" />
      <stop offset="100%" stop-color="#4d9f86" />
    </linearGradient>
  </defs>
  <rect width="480" height="600" fill="url(#bg)" rx="40" />
  <g transform="translate(0,36)">
    <ellipse cx="240" cy="420" rx="190" ry="156" fill="#ffffff" opacity="0.85" />
    <path d="M240 120c-60 0-108 48-108 108s48 108 108 108 108-48 108-108-48-108-108-108z" fill="#fdf9f6" />
    <path d="M240 134c-44 0-82 32-82 74 0 22 8 42 24 56-12 30-6 64 16 88 12 12 28 20 42 20s30-8 42-20c22-24 28-58 16-88 16-14 24-34 24-56 0-42-38-74-82-74z" fill="#ffe3d7" />
    <path d="M154 216c20-10 36-14 48-34 12-20 16-40 38-46 22-6 64-2 86 44 6 14 20 24 32 30-4-64-52-116-118-116-66 0-114 52-118 122 6 0 20 0 32 0z" fill="url(#hair)" />
    <path d="M240 318c-48 0-112 40-132 100l28 48h208l28-48c-20-60-84-100-132-100z" fill="url(#blouse)" />
    <path d="M194 360c14 24 28 38 46 38s32-14 46-38c-14-10-30-16-46-16s-32 6-46 16z" fill="#fdf7f2" opacity="0.9" />
    <path d="M240 184c-16 0-28 12-28 28s12 28 28 28 28-12 28-28-12-28-28-28z" fill="#f5ccbc" />
    <circle cx="210" cy="228" r="10" fill="#1e2430" opacity="0.72" />
    <circle cx="270" cy="228" r="10" fill="#1e2430" opacity="0.72" />
    <path d="M216 264c8 10 16 16 24 16s16-6 24-16" fill="none" stroke="#d88f7a" stroke-width="6" stroke-linecap="round" />
  </g>
</svg>
